<?xml version="1.0" encoding="UTF-8" standalone="no"?>
<!DOCTYPE svg PUBLIC "-//W3C//DTD SVG 1.1//EN" "http://www.w3.org/Graphics/SVG/1.1/DTD/svg11.dtd">
<svg width="100%" height="100%" viewBox="0 0 579 477" version="1.1" xmlns="http://www.w3.org/2000/svg" xmlns:xlink="http://www.w3.org/1999/xlink" xml:space="preserve" xmlns:serif="http://www.serif.com/" style="fill-rule:evenodd;clip-rule:evenodd;stroke-linejoin:round;stroke-miterlimit:2;">
    <g transform="matrix(1,0,0,1,-2148,-229)">
        <g transform="matrix(0.486979,0,0,1,1010.651042,-0)">
            <g id="logo">
                <g transform="matrix(3.376065,0,0,1.644073,1458.897816,-260.216886)">
                    <path d="M327.173,587.163L543.875,587.217L544.514,519.817C546.322,517.334 549.619,516.156 552.577,517.692C558.06,520.566 564.264,522.208 570.855,522.208C601.975,522.245 624.933,486.204 602.511,452.415C601.366,450.719 599.899,449.183 598.244,448.005C582.071,436.484 565.5,436.377 552.735,443.005C549.874,444.484 546.69,443.521 544.851,441.271L545.127,376.122C545.131,372.463 542.321,369.458 538.791,369.3L536.654,368.891L477.891,368.853C473.639,368.104 470.936,363.332 473.031,359.246C475.964,353.492 477.629,346.957 477.671,340.025C477.778,316.563 459.101,297.577 436.199,298.058C413.306,297.454 394.548,316.364 394.518,339.813C394.527,346.76 399.08,359.067 399.08,359.067C399.08,359.067 398.421,367.925 394.175,368.638L335.385,368.388L333.259,368.778C329.723,368.924 326.903,371.906 326.903,375.588L326.846,440.736C324.976,442.967 321.803,443.933 318.952,442.415C306.223,435.734 289.646,435.751 273.417,447.2C271.756,448.363 270.275,449.898 269.12,451.595C246.519,485.259 269.324,521.406 300.434,521.529C307.021,521.565 313.239,519.958 318.727,517.099C321.706,515.566 325.007,516.78 326.775,519.281L327.173,587.163Z" style="fill:rgb(34,40,49);fill-rule:nonzero;"/>
                </g>
                <g id="logo1" serif:id="logo" transform="matrix(0.384064,0,0,0.384064,1804.691979,350.45)">
                    <path d="M3523.325,508.907C3505.696,568.938 3450.306,623.072 3369.265,665.413C3260.37,722.306 3105.161,757.905 2933.014,757.905L2933.014,682.88C3150.842,682.88 3332.101,606.028 3368.595,505.012L2933.014,505.012L2933.014,429.988L3368.595,429.988C3368.824,430.622 3369.047,431.257 3369.265,431.892L3369.265,429.988L3523.325,429.988L3523.325,508.907ZM2341.614,505.012C2338.355,492.731 2336.675,480.21 2336.675,467.5C2336.675,454.79 2338.355,442.269 2341.614,429.988C2379.444,287.401 2629.986,177.095 2933.014,177.095C3105.161,177.095 3260.37,212.694 3369.265,269.587C3399.876,285.58 3426.827,303.255 3449.465,322.296L3316.043,359.808C3239.524,295.452 3096.578,252.12 2933.014,252.12C2715.185,252.12 2533.926,328.972 2497.432,429.988C2493.031,442.171 2490.735,454.706 2490.735,467.5C2490.735,480.294 2493.031,492.829 2497.432,505.012C2506.523,530.176 2524.598,553.841 2549.984,575.192L2416.562,612.704C2377.972,580.248 2351.912,543.826 2341.614,505.012Z" style="fill:rgb(238,238,238);"/>
                </g>
            </g>
        </g>
    </g>
</svg>
