<?xml version="1.0" encoding="UTF-8" standalone="no"?>
<!DOCTYPE svg PUBLIC "-//W3C//DTD SVG 1.1//EN" "http://www.w3.org/Graphics/SVG/1.1/DTD/svg11.dtd">
<svg width="100%" height="100%" viewBox="0 0 579 581" version="1.1" xmlns="http://www.w3.org/2000/svg" xmlns:xlink="http://www.w3.org/1999/xlink" xml:space="preserve" xmlns:serif="http://www.serif.com/" style="fill-rule:evenodd;clip-rule:evenodd;stroke-linejoin:round;stroke-miterlimit:2;">
    <g transform="matrix(1,0,0,1,-2148,-1162)">
        <g transform="matrix(1,0,0,1,29.675982,-0)">
            <g id="logo" transform="matrix(0.486979,0,0,1,980.97506,985)">
                <g transform="matrix(4.555814,0,0,2.218586,-7658.50137,-401.425529)">
                    <path d="M2454.408,410.321C2450.538,437.379 2438.38,461.78 2420.592,480.864C2396.69,506.508 2362.621,522.553 2324.835,522.553L2324.835,488.737C2372.648,488.737 2412.434,454.097 2420.445,408.565L2324.835,408.565L2324.835,374.749L2420.445,374.749C2420.495,375.035 2420.544,375.321 2420.592,375.608L2420.592,374.749L2454.408,374.749L2454.408,410.321Z" style="fill:currentColor;"/>
                </g>
                <g transform="matrix(4.555814,0,0,2.218586,-7658.50137,-401.425529)">
                    <path d="M2195.023,408.565C2194.308,403.03 2193.939,397.386 2193.939,391.657C2193.939,385.928 2194.308,380.285 2195.023,374.749C2203.327,310.48 2258.32,260.761 2324.835,260.761C2362.621,260.761 2396.69,276.807 2420.592,302.45C2427.311,309.659 2433.227,317.626 2438.196,326.208L2408.91,343.117C2392.114,314.109 2360.737,294.577 2324.835,294.577C2277.022,294.577 2237.235,329.218 2229.225,374.749C2228.259,380.241 2227.755,385.891 2227.755,391.657C2227.755,397.424 2228.259,403.074 2229.225,408.565C2231.22,419.908 2235.188,430.574 2240.76,440.198L2211.474,457.106C2203.003,442.477 2197.283,426.06 2195.023,408.565Z" style="fill:currentColor;"/>
                </g>
            </g>
        </g>
    </g>
</svg>
