<?xml version="1.0" encoding="UTF-8" standalone="no"?>
<!DOCTYPE svg PUBLIC "-//W3C//DTD SVG 1.1//EN" "http://www.w3.org/Graphics/SVG/1.1/DTD/svg11.dtd">
<svg width="100%" height="100%" viewBox="0 0 1188 289" version="1.1" xmlns="http://www.w3.org/2000/svg" xmlns:xlink="http://www.w3.org/1999/xlink" xml:space="preserve" xmlns:serif="http://www.serif.com/" style="fill-rule:evenodd;clip-rule:evenodd;stroke-linejoin:round;stroke-miterlimit:2;">
    <g transform="matrix(1,0,0,1,-366,-323)">
        <g transform="matrix(1,0,0,1.027473,0,-51.373626)">
            <g id="full-logo" serif:id="full logo" transform="matrix(1.534782,0,0,1.534782,-729.255297,-274.849174)">
                <g id="logo" transform="matrix(0.141117,0,0,0.282033,384.317459,385.955237)">
                    <g transform="matrix(4.555814,0,0,2.218586,-7658.50137,-401.425529)">
                        <path d="M2454.408,410.321C2450.538,437.379 2438.38,461.78 2420.592,480.864C2396.69,506.508 2362.621,522.553 2324.835,522.553L2324.835,488.737C2372.648,488.737 2412.434,454.097 2420.445,408.565L2324.835,408.565L2324.835,374.749L2420.445,374.749C2420.495,375.035 2420.544,375.321 2420.592,375.608L2420.592,374.749L2454.408,374.749L2454.408,410.321Z" style="fill:rgb(34,40,49);"/>
                    </g>
                    <g transform="matrix(4.555814,0,0,2.218586,-7658.50137,-401.425529)">
                        <path d="M2195.023,408.565C2194.308,403.03 2193.939,397.386 2193.939,391.657C2193.939,385.928 2194.308,380.285 2195.023,374.749C2203.327,310.48 2258.32,260.761 2324.835,260.761C2362.621,260.761 2396.69,276.807 2420.592,302.45C2427.311,309.659 2433.227,317.626 2438.196,326.208L2408.91,343.117C2392.114,314.109 2360.737,294.577 2324.835,294.577C2277.022,294.577 2237.235,329.218 2229.225,374.749C2228.259,380.241 2227.755,385.891 2227.755,391.657C2227.755,397.424 2228.259,403.074 2229.225,408.565C2231.22,419.908 2235.188,430.574 2240.76,440.198L2211.474,457.106C2203.003,442.477 2197.283,426.06 2195.023,408.565Z" style="fill:rgb(34,40,49);"/>
                    </g>
                </g>
                <g transform="matrix(1,0,0,0.973262,-110.400043,95.516462)">
                    <path d="M1060.337,511.638C1050.45,511.638 1041.598,509.047 1033.784,503.863C1025.969,498.68 1019.869,491.902 1015.483,483.529C1011.097,475.157 1008.904,466.186 1008.904,456.617C1008.904,446.888 1011.097,437.877 1015.483,429.584C1019.869,421.291 1025.969,414.553 1033.784,409.37C1041.598,404.187 1050.45,401.595 1060.337,401.595C1068.312,401.595 1075.568,403.19 1082.107,406.38C1088.646,409.569 1094.228,414.194 1098.853,420.255L1098.853,403.987L1122.057,403.987L1122.057,509.246L1098.853,509.246L1098.853,492.979C1096.141,496.806 1092.792,500.155 1088.805,503.026C1084.818,505.897 1080.432,508.05 1075.648,509.485C1070.863,510.921 1065.76,511.638 1060.337,511.638ZM1065.84,490.826C1072.219,490.826 1077.881,489.231 1082.825,486.041C1087.768,482.852 1091.676,478.665 1094.546,473.482C1097.417,468.299 1098.853,462.677 1098.853,456.617C1098.853,450.556 1097.417,444.935 1094.546,439.751C1091.676,434.568 1087.768,430.382 1082.825,427.192C1077.881,424.002 1072.219,422.408 1065.84,422.408C1059.46,422.408 1053.799,424.002 1048.855,427.192C1043.911,430.382 1040.003,434.568 1037.133,439.751C1034.262,444.935 1032.827,450.556 1032.827,456.617C1032.827,462.677 1034.262,468.299 1037.133,473.482C1040.003,478.665 1043.911,482.852 1048.855,486.041C1053.799,489.231 1059.46,490.826 1065.84,490.826Z" style="fill:rgb(34,40,49);fill-rule:nonzero;"/>
                </g>
                <g transform="matrix(1,0,0,0.973262,-110.400043,95.516462)">
                    <path d="M1156.745,509.246L1156.745,403.987L1179.71,403.987L1179.71,509.246L1156.745,509.246ZM1168.227,386.763C1164.24,386.763 1160.891,385.368 1158.18,382.577C1155.469,379.786 1154.113,376.477 1154.113,372.649C1154.113,368.662 1155.469,365.313 1158.18,362.602C1160.891,359.89 1164.24,358.535 1168.227,358.535C1172.055,358.535 1175.364,359.89 1178.155,362.602C1180.946,365.313 1182.342,368.662 1182.342,372.649C1182.342,376.477 1180.946,379.786 1178.155,382.577C1175.364,385.368 1172.055,386.763 1168.227,386.763Z" style="fill:rgb(34,40,49);fill-rule:nonzero;"/>
                </g>
                <g transform="matrix(1,0,0,0.973262,-110.400043,95.516462)">
                    <path d="M1256.023,511.638C1246.135,511.638 1237.283,509.047 1229.469,503.863C1221.654,498.68 1215.514,491.902 1211.049,483.529C1206.583,475.157 1204.35,466.186 1204.35,456.617C1204.35,446.888 1206.583,437.877 1211.049,429.584C1215.514,421.291 1221.654,414.553 1229.469,409.37C1237.283,404.187 1246.135,401.595 1256.023,401.595C1263.997,401.595 1271.333,403.11 1278.031,406.14C1284.73,409.171 1290.232,413.875 1294.538,420.255L1294.538,329.828L1317.742,329.828L1317.742,509.246L1294.538,509.246L1294.538,492.979C1291.667,496.806 1288.238,500.155 1284.251,503.026C1280.264,505.897 1275.878,508.05 1271.094,509.485C1266.309,510.921 1261.286,511.638 1256.023,511.638ZM1261.525,490.826C1267.904,490.826 1273.566,489.231 1278.51,486.041C1283.454,482.852 1287.361,478.665 1290.232,473.482C1293.102,468.299 1294.538,462.677 1294.538,456.617C1294.538,450.556 1293.102,444.935 1290.232,439.751C1287.361,434.568 1283.454,430.382 1278.51,427.192C1273.566,424.002 1267.904,422.408 1261.525,422.408C1255.146,422.408 1249.444,424.002 1244.42,427.192C1239.397,430.382 1235.449,434.568 1232.579,439.751C1229.708,444.935 1228.273,450.556 1228.273,456.617C1228.273,462.677 1229.708,468.299 1232.579,473.482C1235.449,478.665 1239.397,482.852 1244.42,486.041C1249.444,489.231 1255.146,490.826 1261.525,490.826Z" style="fill:rgb(34,40,49);fill-rule:nonzero;"/>
                </g>
                <g transform="matrix(1,0,0,0.973262,-110.400043,95.516462)">
                    <path d="M1349.559,509.246L1349.559,403.987L1372.525,403.987L1372.525,421.929C1374.598,417.145 1377.03,413.277 1379.821,410.327C1382.612,407.376 1385.762,405.184 1389.27,403.748C1392.779,402.313 1396.527,401.595 1400.514,401.595C1402.268,401.595 1404.102,401.795 1406.016,402.193C1407.93,402.592 1409.604,403.19 1411.04,403.987L1411.04,429.345C1409.286,427.431 1407.252,426.036 1404.94,425.159C1402.627,424.282 1400.275,423.843 1397.882,423.843C1392.939,423.843 1388.553,425.478 1384.725,428.747C1380.898,432.016 1377.907,436.123 1375.754,441.067C1373.601,446.011 1372.525,451.194 1372.525,456.617L1372.525,509.246L1349.559,509.246Z" style="fill:rgb(34,40,49);fill-rule:nonzero;"/>
                </g>
                <g transform="matrix(1,0,0,0.973262,-110.400043,95.516462)">
                    <path d="M1436.637,509.246L1436.637,403.987L1459.602,403.987L1459.602,509.246L1436.637,509.246ZM1448.12,386.763C1444.132,386.763 1440.783,385.368 1438.072,382.577C1435.361,379.786 1434.005,376.477 1434.005,372.649C1434.005,368.662 1435.361,365.313 1438.072,362.602C1440.783,359.89 1444.132,358.535 1448.12,358.535C1451.947,358.535 1455.256,359.89 1458.047,362.602C1460.838,365.313 1462.234,368.662 1462.234,372.649C1462.234,376.477 1460.838,379.786 1458.047,382.577C1455.256,385.368 1451.947,386.763 1448.12,386.763Z" style="fill:rgb(34,40,49);fill-rule:nonzero;"/>
                </g>
                <g transform="matrix(1,0,0,0.973262,-110.400043,95.516462)">
                    <path d="M1535.915,511.638C1526.027,511.638 1517.176,509.047 1509.361,503.863C1501.546,498.68 1495.406,491.902 1490.941,483.529C1486.475,475.157 1484.242,466.186 1484.242,456.617C1484.242,446.888 1486.475,437.877 1490.941,429.584C1495.406,421.291 1501.546,414.553 1509.361,409.37C1517.176,404.187 1526.027,401.595 1535.915,401.595C1543.889,401.595 1551.225,403.11 1557.923,406.14C1564.622,409.171 1570.124,413.875 1574.43,420.255L1574.43,329.828L1597.635,329.828L1597.635,509.246L1574.43,509.246L1574.43,492.979C1571.559,496.806 1568.13,500.155 1564.143,503.026C1560.156,505.897 1555.77,508.05 1550.986,509.485C1546.201,510.921 1541.178,511.638 1535.915,511.638ZM1541.417,490.826C1547.796,490.826 1553.458,489.231 1558.402,486.041C1563.346,482.852 1567.253,478.665 1570.124,473.482C1572.994,468.299 1574.43,462.677 1574.43,456.617C1574.43,450.556 1572.994,444.935 1570.124,439.751C1567.253,434.568 1563.346,430.382 1558.402,427.192C1553.458,424.002 1547.796,422.408 1541.417,422.408C1535.038,422.408 1529.336,424.002 1524.312,427.192C1519.289,430.382 1515.341,434.568 1512.471,439.751C1509.6,444.935 1508.165,450.556 1508.165,456.617C1508.165,462.677 1509.6,468.299 1512.471,473.482C1515.341,478.665 1519.289,482.852 1524.312,486.041C1529.336,489.231 1535.038,490.826 1541.417,490.826Z" style="fill:rgb(34,40,49);fill-rule:nonzero;"/>
                </g>
            </g>
        </g>
    </g>
</svg>
